# xmcd
#
# Track frame offsets:
#	150
#	28904
#	57355
#	84063
#	104966
#	134288
#	152868
#	173771
#	204181
#	228433
#	243518
#	265874
#	292002
#	316388
#
# Disc length: 4576 seconds
#
# Revision: 1
# Processed by: cddbd v1.5.2PL0 Copyright (c) Steve Scherf et al.
# Submitted via: audiograbber 1.83.01
#
DISCID=c511de0e
DTITLE=Terry Lee Brown Jr. - Terry's Cafe Vol. 14
DYEAR=2012
DGENRE=Deep House
TTITLE0=Deep Sector - Rainbows
TTITLE1=Ocean Gaya - Think Global (Terry Lee Brown Jr. RMX)
TTITLE2=MRI - Filthy Lesson
TTITLE3=Boghosian, Torquato - Need U
TTITLE4=Dixie Jure - By Defection
TTITLE5=Danny Daze and Matches - If this
TTITLE6=Shlomi Aber - NY Dreamer (Alix Alvarez RMX)
TTITLE7=Terry Lee Brown Jr. - Bohemian Life (TLB Dub Mix)
TTITLE8=&ME - Dios
TTITLE9=Ruben de Ronde - Stoer
TTITLE10=Mika Olsen - Chord Lopper
TTITLE11=Pedro Aguiar and Nuno Ramos - Crystal Clear
TTITLE12=Terry Lee Brown Jr. - Home (Unreleased)
TTITLE13=Forteba - Do U Like It
EXTD=
EXTT0=
EXTT1=
EXTT2=
EXTT3=
EXTT4=
EXTT5=
EXTT6=
EXTT7=
EXTT8=
EXTT9=
EXTT10=
EXTT11=
EXTT12=
EXTT13=
PLAYORDER=
